<svg width="24" height="29" viewBox="0 0 24 29" fill="none" xmlns="http://www.w3.org/2000/svg">
<path d="M9 14.0646C8.20888 14.0646 7.43552 14.3395 6.77772 14.8547C6.11992 15.3698 5.60723 16.102 5.30448 16.9587C5.00173 17.8153 4.92252 18.758 5.07686 19.6674C5.2312 20.5768 5.61216 21.4122 6.17157 22.0678C6.73098 22.7235 7.44372 23.17 8.21964 23.3509C8.99556 23.5318 9.79983 23.4389 10.5307 23.0841C11.2616 22.7293 11.8864 22.1284 12.3259 21.3574C12.7654 20.5864 13 19.68 13 18.7528V4.68819C13 6.24243 13.5268 7.733 14.4645 8.83201C15.4021 9.93102 16.6739 10.5484 18 10.5484" stroke="black" stroke-width="1.7" stroke-linecap="round" stroke-linejoin="round"/>
</svg>
